<svg xmlns="http://www.w3.org/2000/svg" xmlns:xlink="http://www.w3.org/1999/xlink" viewBox="0,0,256,256" width="24px" height="24px" fill-rule="nonzero"><g transform=""><g fill="#ffff00" fill-rule="nonzero" stroke="none" stroke-width="1" stroke-linecap="butt" stroke-linejoin="miter" stroke-miterlimit="10" stroke-dasharray="" stroke-dashoffset="0" font-family="none" font-weight="none" font-size="none" text-anchor="none" style="mix-blend-mode: normal"><path d="M128,256c-70.69245,0 -128,-57.30755 -128,-128v0c0,-70.69245 57.30755,-128 128,-128v0c70.69245,0 128,57.30755 128,128v0c0,70.69245 -57.30755,128 -128,128z" id="shape"></path></g><g fill="#0000ff" fill-rule="nonzero" stroke="none" stroke-width="1" stroke-linecap="butt" stroke-linejoin="miter" stroke-miterlimit="10" stroke-dasharray="" stroke-dashoffset="0" font-family="none" font-weight="none" font-size="none" text-anchor="none" style="mix-blend-mode: normal"><g transform="scale(10.66667,10.66667)"><path d="M12,1c-1.654,0 -3,1.346 -3,3c0,1.654 1.346,3 3,3c1.654,0 3,-1.346 3,-3c0,-1.654 -1.346,-3 -3,-3zM13,7.10352v5.89648h-2v-5.89453c-0.348,0.074 -0.69139,0.18298 -1.02539,0.33398l-7.83984,3.5293c-0.67,0.302 -1.10481,0.96728 -1.13281,1.73828c-0.028,0.777 0.35867,1.47803 1.01367,1.83203l6.68164,3.61524c1.034,0.56 2.16969,0.83984 3.30469,0.83984c1.135,0 2.26873,-0.28084 3.30274,-0.83984l6.68164,-3.61523c0.654,-0.354 1.04167,-1.05503 1.01367,-1.83203c-0.029,-0.771 -0.46377,-1.43628 -1.13477,-1.73828l-7.83984,-3.53125c-0.334,-0.151 -0.67739,-0.25998 -1.02539,-0.33398zM7.5,12c0.828,0 1.5,0.448 1.5,1c0,0.552 -0.672,1 -1.5,1c-0.828,0 -1.5,-0.448 -1.5,-1c0,-0.552 0.672,-1 1.5,-1zM1.35547,16.50977c-0.18844,0.00717 -0.35547,0.16155 -0.35547,0.37305v0.73242c0,0.554 0.31355,1.06064 0.81055,1.30664l6.48438,3.20898c1.177,0.583 2.44008,0.875 3.70508,0.875c1.264,0 2.52708,-0.292 3.70508,-0.875l6.49219,-3.21289c0.491,-0.243 0.80273,-0.74402 0.80273,-1.29102v-0.74219c0,-0.282 -0.29887,-0.46408 -0.54687,-0.33008c-1.606,0.87 -6.19727,3.35937 -6.19727,3.35937c-1.307,0.707 -2.77786,1.08008 -4.25586,1.08008c-1.478,0 -2.94886,-0.37308 -4.25586,-1.08008c0,0 -4.59127,-2.48938 -6.19727,-3.35937c-0.062,-0.03375 -0.12859,-0.04731 -0.19141,-0.04492z"></path></g></g></g></svg>