<svg xmlns="http://www.w3.org/2000/svg" xmlns:xlink="http://www.w3.org/1999/xlink" viewBox="0,0,256,256" width="24px" height="24px" fill-rule="nonzero"><g fill="#ffff00" fill-rule="nonzero" stroke="none" stroke-width="1" stroke-linecap="butt" stroke-linejoin="miter" stroke-miterlimit="10" stroke-dasharray="" stroke-dashoffset="0" font-family="none" font-weight="none" font-size="none" text-anchor="none" style="mix-blend-mode: normal"><path d="M128,256c-70.69245,0 -128,-57.30755 -128,-128v0c0,-70.69245 57.30755,-128 128,-128v0c70.69245,0 128,57.30755 128,128v0c0,70.69245 -57.30755,128 -128,128z" id="shape"></path></g><g fill="#0000ff" fill-rule="nonzero" stroke="none" stroke-width="1" stroke-linecap="butt" stroke-linejoin="miter" stroke-miterlimit="10" stroke-dasharray="" stroke-dashoffset="0" font-family="none" font-weight="none" font-size="none" text-anchor="none" style="mix-blend-mode: normal"><g transform="scale(10.66667,10.66667)"><path d="M20.869,7.795l-0.392,-1.872l-2.908,3.077h-2.569v-2.57l3.078,-2.922l-1.877,-0.386c-0.392,-0.081 -0.797,-0.122 -1.201,-0.122c-3.309,0 -6,2.717 -6,6.056c0,0.42 0.051,0.845 0.153,1.285l-7.153,7.034l4.594,4.625l7.147,-7.066c0.428,0.066 0.846,0.066 1.259,0.066c3.364,0 6,-2.611 6,-5.944c0,-0.422 -0.044,-0.847 -0.131,-1.261z"></path></g></g></svg>